<?xml version="1.0" standalone="no"?>
<!DOCTYPE svg PUBLIC "-//W3C//DTD SVG 20010904//EN"
 "http://www.w3.org/TR/2001/REC-SVG-20010904/DTD/svg10.dtd">
<svg version="1.0" xmlns="http://www.w3.org/2000/svg"
 width="1313.000000pt" height="924.000000pt" viewBox="0 0 1313.000000 924.000000"
 preserveAspectRatio="xMidYMid meet">

<g transform="translate(0.000000,924.000000) scale(0.100000,-0.100000)"
fill="#000000" stroke="none">
<path d="M3720 6540 l0 -760 65 0 65 0 0 262 c0 316 7 367 64 451 57 85 113
119 210 125 150 9 227 -52 255 -203 6 -34 11 -181 11 -347 l0 -288 65 0 65 0
0 338 c0 257 -4 349 -14 390 -44 163 -158 239 -346 230 -112 -5 -196 -43 -264
-119 l-46 -51 0 366 0 366 -65 0 -65 0 0 -760z"/>
<path d="M2550 7135 l0 -65 238 -2 237 -3 3 -642 2 -643 70 0 70 0 0 645 0
645 235 0 235 0 0 65 0 65 -545 0 -545 0 0 -65z"/>
<path d="M4915 6722 c-231 -77 -361 -298 -325 -551 46 -322 397 -503 696 -360
63 30 174 121 174 143 0 6 -21 28 -46 48 l-46 37 -51 -51 c-75 -75 -142 -103
-247 -103 -102 0 -173 28 -240 95 -46 46 -97 146 -102 200 l-3 35 388 3 387 2
0 61 c0 121 -44 239 -121 323 -87 96 -186 137 -328 135 -51 -1 -107 -8 -136
-17z m268 -122 c92 -35 161 -129 169 -230 l3 -45 -312 -3 -313 -2 0 33 c0 84
102 207 203 246 71 27 179 28 250 1z"/>
<path d="M7391 5769 c-151 -29 -358 -262 -506 -573 -35 -72 -73 -164 -86 -203
l-23 -73 -96 0 -97 0 -12 -41 c-7 -23 -15 -47 -18 -55 -4 -10 16 -14 95 -16
l99 -3 -33 -115 c-19 -63 -68 -252 -109 -420 -134 -553 -211 -762 -297 -806
-46 -24 -70 -8 -91 58 -21 66 -43 88 -95 95 -86 12 -149 -54 -139 -144 6 -56
28 -79 90 -98 78 -23 172 -19 234 10 71 33 174 137 257 262 78 117 206 372
276 548 47 119 152 432 185 553 l18 62 117 0 118 0 11 44 c6 25 11 50 11 55 0
7 -41 11 -115 11 -115 0 -115 0 -110 23 3 12 26 123 50 247 54 267 85 374 127
424 26 32 35 37 67 34 30 -2 39 -9 53 -38 25 -50 23 -134 -7 -227 -14 -43 -25
-81 -25 -85 0 -5 15 -8 33 -8 29 0 38 9 96 88 108 147 144 259 107 330 -26 50
-105 76 -185 61z"/>
<path d="M10783 5750 c-58 -12 -153 -51 -219 -91 -121 -73 -245 -193 -259
-252 -12 -47 16 -32 100 54 156 159 269 218 388 204 73 -8 124 -32 172 -82 67
-69 93 -144 102 -289 24 -411 -306 -1241 -509 -1279 -85 -16 -122 38 -120 175
2 274 174 550 411 661 113 53 116 55 116 65 0 5 -13 15 -27 22 -53 25 -233
-22 -368 -96 -176 -96 -307 -226 -384 -381 -46 -92 -57 -129 -64 -228 l-7 -87
-47 -29 c-61 -38 -112 -49 -166 -35 -54 13 -66 35 -58 102 11 81 32 144 147
439 60 153 109 282 109 287 0 6 -59 10 -145 10 l-144 0 -6 -34 -7 -34 -38 38
c-71 71 -128 71 -265 3 -296 -149 -559 -419 -626 -642 -24 -81 -176 -171 -303
-179 -161 -10 -237 49 -237 183 0 102 9 134 40 141 312 68 515 174 581 303 26
53 27 135 0 178 -30 49 -73 68 -155 66 -87 -1 -158 -22 -266 -76 -405 -203
-647 -669 -449 -867 96 -96 310 -105 514 -20 80 33 184 96 227 137 l26 24 5
-46 c13 -107 97 -170 228 -170 66 1 84 5 150 38 101 49 192 120 294 229 47 50
86 88 86 84 0 -3 -27 -61 -61 -128 l-61 -122 28 -24 c143 -119 360 -103 550
42 34 25 64 46 67 46 3 0 8 -11 11 -25 10 -40 62 -91 118 -116 43 -18 71 -23
153 -23 58 -1 121 5 150 13 296 83 593 434 738 871 56 167 78 285 80 415 1
118 -14 186 -59 276 -80 161 -250 261 -437 258 -34 -1 -81 -5 -104 -9z m-2104
-949 c36 -23 0 -139 -64 -210 -51 -56 -222 -147 -241 -128 -3 2 22 58 55 123
75 151 140 224 198 224 21 0 44 -4 52 -9z m961 -34 c28 -14 52 -36 64 -58 l19
-35 -33 -89 c-94 -258 -241 -459 -353 -483 -57 -12 -101 -5 -123 20 -24 25
-31 133 -13 196 32 119 121 275 233 411 l60 73 51 -6 c27 -4 70 -17 95 -29z"/>
<path d="M3180 5618 c-36 -5 -188 -10 -339 -11 l-274 -2 -8 -23 c-6 -16 -5
-24 4 -27 6 -2 51 -15 99 -30 48 -15 93 -34 99 -41 17 -20 14 -61 -10 -148
-27 -98 -388 -1130 -411 -1177 -39 -76 -131 -139 -227 -154 -33 -5 -43 -12
-51 -33 l-9 -27 491 0 c316 0 494 4 498 10 4 6 8 17 8 26 0 12 -23 19 -105 33
-205 33 -251 57 -249 128 1 36 130 457 149 488 3 6 50 10 103 10 448 1 702
101 835 330 42 72 60 160 55 269 -5 115 -32 185 -98 251 -109 109 -334 161
-560 128z m220 -121 c65 -32 93 -91 98 -212 9 -210 -71 -385 -223 -484 -85
-56 -155 -76 -297 -86 -81 -6 -98 -5 -98 7 0 7 62 189 138 403 l139 390 44 6
c67 10 149 0 199 -24z"/>
<path d="M4401 4939 c-82 -25 -218 -155 -320 -306 -34 -51 -64 -93 -67 -93 -3
0 -3 3 0 8 6 10 156 364 156 369 0 2 -70 2 -156 1 l-157 -3 -158 -465 c-87
-256 -158 -473 -158 -482 -1 -16 12 -18 142 -18 l143 0 28 88 c48 146 123 328
189 455 72 141 142 221 199 232 46 9 78 -8 78 -40 0 -37 30 -92 57 -104 34
-16 99 -14 133 4 81 42 124 178 86 269 -29 69 -118 108 -195 85z"/>
<path d="M5148 4940 c-82 -13 -203 -63 -289 -120 -264 -173 -453 -505 -408
-719 35 -172 293 -233 534 -127 185 82 393 281 483 461 86 174 80 366 -16 445
-65 53 -188 78 -304 60z m20 -103 c47 -44 56 -161 22 -304 -82 -348 -260 -596
-368 -516 -81 60 -81 195 0 438 53 161 119 287 184 352 66 66 112 75 162 30z"/>
<path d="M6175 4943 c-312 -48 -626 -337 -706 -651 -47 -184 -7 -291 127 -341
211 -80 462 6 695 239 166 164 241 316 242 487 1 71 -3 89 -28 140 -27 52 -37
61 -95 90 -66 33 -163 48 -235 36z m20 -138 c52 -102 3 -358 -112 -590 -47
-94 -99 -162 -149 -191 -47 -28 -64 -29 -103 -9 -88 45 -79 251 23 515 69 178
162 310 230 329 46 12 87 -8 111 -54z"/>
<path d="M7947 4936 c-90 -33 -214 -156 -316 -314 -30 -45 -55 -81 -57 -79 -2
2 30 83 71 180 41 97 75 181 75 187 0 6 -54 10 -154 10 l-154 0 -158 -472
c-86 -260 -159 -479 -162 -486 -3 -10 27 -12 143 -10 l147 3 53 150 c98 283
191 470 275 557 56 58 92 75 135 64 18 -5 26 -15 31 -44 9 -49 30 -89 53 -102
31 -16 113 -12 143 8 39 26 69 67 84 119 19 63 18 99 -7 149 -35 74 -124 109
-202 80z"/>
<path d="M3050 3060 l0 -710 70 0 70 0 0 330 0 330 174 0 c251 0 352 25 450
111 68 60 99 133 104 243 7 153 -35 248 -138 317 -104 71 -213 89 -527 89
l-203 0 0 -710z m565 546 c120 -54 170 -149 145 -273 -10 -46 -21 -65 -59
-102 -70 -70 -118 -83 -333 -89 l-178 -4 0 247 0 247 193 -4 c156 -4 199 -8
232 -22z"/>
<path d="M4220 3299 c-96 -14 -201 -61 -244 -107 -18 -20 -17 -22 19 -66 l38
-44 48 33 c75 51 140 70 244 70 79 0 95 -3 135 -27 59 -34 91 -91 97 -173 l6
-62 -159 -6 c-224 -7 -338 -42 -421 -129 -46 -48 -65 -101 -65 -184 0 -111 48
-188 149 -239 54 -28 66 -30 173 -30 103 0 121 3 170 26 50 24 105 71 144 124
15 19 15 19 16 -11 0 -17 3 -52 6 -78 l7 -46 64 0 65 0 -7 38 c-4 20 -10 186
-14 367 -6 314 -7 332 -28 375 -73 147 -219 203 -443 169z m338 -566 c-11
-186 -110 -283 -289 -283 -125 0 -209 67 -209 168 0 59 22 96 75 128 81 47
183 67 379 73 l49 1 -5 -87z"/>
<path d="M5146 3299 c-71 -11 -164 -61 -223 -117 -152 -145 -192 -376 -99
-566 76 -155 209 -243 395 -262 133 -13 275 38 352 124 l41 47 -3 -145 c-4
-141 -5 -148 -37 -213 -38 -76 -84 -119 -160 -147 -159 -60 -358 -20 -477 95
l-45 44 -43 -45 c-23 -26 -43 -50 -45 -54 -2 -4 19 -27 45 -50 93 -83 252
-140 393 -140 258 0 428 115 487 331 16 57 18 119 18 574 l0 510 -65 0 -65 0
-3 -74 -3 -73 -54 52 c-107 100 -244 137 -409 109z m273 -145 c142 -63 220
-223 191 -394 -25 -147 -125 -249 -274 -280 -159 -33 -314 48 -385 199 -22 48
-26 69 -26 151 0 82 4 103 26 151 86 182 285 256 468 173z"/>
<path d="M6192 3295 c-292 -64 -446 -417 -307 -702 82 -167 239 -263 429 -263
144 0 243 39 343 134 l64 61 -52 40 -52 41 -53 -54 c-70 -69 -127 -94 -229
-100 -98 -5 -170 19 -238 78 -64 56 -99 121 -121 223 l-6 27 390 0 390 0 0 66
c0 132 -48 254 -134 338 -109 109 -257 147 -424 111z m265 -141 c88 -45 127
-104 149 -226 l6 -38 -316 0 -316 0 1 28 c1 39 19 84 55 134 91 128 280 174
421 102z"/>
</g>
</svg>
